<svg xmlns="http://www.w3.org/2000/svg" width="805" height="600"><rect width="805" height="600" x="0" y="0" fill="#FFFFFF" id="backgorund"/><g transform="translate(10,10)" id="visualization"><g><rect x="520" y="0" height="5.645161290322591" width="5" fill="black"><title>60 - 60: 1</title></rect><rect x="520" y="10.64516129032259" height="5.645161290322562" width="5" fill="black"><title>40 - 40: 1</title></rect><rect x="520" y="21.290322580645153" height="5.645161290322562" width="5" fill="black"><title>60 - 70: 1</title></rect><rect x="520" y="31.935483870967715" height="5.645161290322562" width="5" fill="black"><title>20 - 20: 1</title></rect><rect x="780" y="5" height="11.290322580645153" width="5" fill="black"><title>ANTI-ISLAMIC(MUSLIM): 2</title></rect><rect x="780" y="21.290322580645153" height="11.290322580645181" width="5" fill="black"><title>ANTI-LGBT(MIXED GROUP): 2</title></rect><rect x="780" y="37.580645161290334" height="11.290322580645181" width="5" fill="black"><title>ANTI-TRANSGENDER: 2</title></rect><rect x="780" y="53.870967741935516" height="22.580645161290334" width="5" fill="black"><title>ANTI-FEMALE: 4</title></rect><rect x="520" y="42.58064516129028" height="28.225806451612925" width="5" fill="black"><title>70 - 70: 5</title></rect><rect x="520" y="75.8064516129032" height="28.225806451612925" width="5" fill="black"><title>30 - 30: 5</title></rect><rect x="780" y="81.45161290322585" height="28.22580645161281" width="5" fill="black"><title>ANTI-WHITE: 5</title></rect><rect x="260" y="17.5" height="33.87096774193549" width="5" fill="black"><title>BLACK HISPANIC: 6</title></rect><rect x="260" y="56.37096774193549" height="33.87096774193549" width="5" fill="black"><title>ASIAN / PACIFIC ISLANDER: 6</title></rect><rect x="780" y="114.67741935483866" height="33.87096774193549" width="5" fill="black"><title>OTHER: 6</title></rect><rect x="520" y="109.03225806451613" height="39.51612903225805" width="5" fill="black"><title>50 - 50: 7</title></rect><rect x="780" y="153.54838709677415" height="39.51612903225808" width="5" fill="black"><title>ANTI-BLACK: 7</title></rect><rect x="520" y="153.54838709677418" height="56.451612903225794" width="5" fill="black"><title>40 - 50: 10</title></rect><rect x="520" y="214.99999999999997" height="62.096774193548384" width="5" fill="black"><title>10 - 20: 11</title></rect><rect x="520" y="282.09677419354836" height="62.09677419354841" width="5" fill="black"><title>50 - 60: 11</title></rect><rect x="520" y="349.19354838709677" height="101.61290322580646" width="5" fill="black"><title>20 - 30: 18</title></rect><rect x="0" y="25" height="112.90322580645164" width="5" fill="black"><title>FEMALE: 20</title></rect><rect x="780" y="198.06451612903223" height="112.90322580645162" width="5" fill="black"><title>ANTI-ASIAN: 20</title></rect><rect x="780" y="315.96774193548384" height="112.90322580645159" width="5" fill="black"><title>ANTI-MALE HOMOSEXUAL(GAY): 20</title></rect><rect x="260" y="95.24193548387098" height="118.54838709677415" width="5" fill="black"><title>WHITE: 21</title></rect><rect x="520" y="455.80645161290323" height="124.19354838709677" width="5" fill="black"><title>30 - 40: 22</title></rect><rect x="260" y="218.79032258064512" height="141.12903225806457" width="5" fill="black"><title>WHITE HISPANIC: 25</title></rect><rect x="780" y="433.87096774193543" height="141.12903225806457" width="5" fill="black"><title>ANTI-JEWISH: 25</title></rect><rect x="260" y="364.9193548387097" height="197.5806451612903" width="5" fill="black"><title>BLACK: 35</title></rect><rect x="0" y="142.90322580645164" height="412.09677419354836" width="5" fill="black"><title>MALE: 73</title></rect></g><g fill="none" stroke-opacity="1"><g style="mix-blend-mode: multiply;"><path d="M5,159.8387096774194C132.5,159.8387096774194,132.5,34.435483870967744,260,34.435483870967744" stroke="#cccccc" stroke-width="33.87096774193549"/><title>MALE → BLACK HISPANIC: 6</title></g><g style="mix-blend-mode: multiply;"><path d="M5,481.61290322580646C132.5,481.61290322580646,132.5,489.11290322580646,260,489.11290322580646" stroke="#cccccc" stroke-width="146.7741935483871"/><title>MALE → BLACK: 26</title></g><g style="mix-blend-mode: multiply;"><path d="M5,112.5C132.5,112.5,132.5,390.32258064516134,260,390.32258064516134" stroke="#cccccc" stroke-width="50.80645161290323"/><title>FEMALE → BLACK: 9</title></g><g style="mix-blend-mode: multiply;"><path d="M5,264.27419354838713C132.5,264.27419354838713,132.5,160.16129032258067,260,160.16129032258067" stroke="#cccccc" stroke-width="107.25806451612904"/><title>MALE → WHITE: 19</title></g><g style="mix-blend-mode: multiply;"><path d="M5,30.64516129032258C132.5,30.64516129032258,132.5,100.88709677419355,260,100.88709677419355" stroke="#cccccc" stroke-width="11.290322580645162"/><title>FEMALE → WHITE: 2</title></g><g style="mix-blend-mode: multiply;"><path d="M5,363.0645161290323C132.5,363.0645161290323,132.5,314.758064516129,260,314.758064516129" stroke="#cccccc" stroke-width="90.3225806451613"/><title>MALE → WHITE HISPANIC: 16</title></g><g style="mix-blend-mode: multiply;"><path d="M5,61.693548387096776C132.5,61.693548387096776,132.5,244.19354838709674,260,244.19354838709674" stroke="#cccccc" stroke-width="50.80645161290323"/><title>FEMALE → WHITE HISPANIC: 9</title></g><g style="mix-blend-mode: multiply;"><path d="M5,193.70967741935488C132.5,193.70967741935488,132.5,73.30645161290323,260,73.30645161290323" stroke="#cccccc" stroke-width="33.87096774193549"/><title>MALE → ASIAN / PACIFIC ISLANDER: 6</title></g><g style="mix-blend-mode: multiply;"><path d="M265,45.725806451612904C392.5,45.725806451612904,392.5,461.4516129032258,520,461.4516129032258" stroke="#cccccc" stroke-width="11.290322580645162"/><title>BLACK HISPANIC → 30 - 40: 2</title></g><g style="mix-blend-mode: multiply;"><path d="M265,545.5645161290322C392.5,545.5645161290322,392.5,563.0645161290322,520,563.0645161290322" stroke="#cccccc" stroke-width="33.87096774193549"/><title>BLACK → 30 - 40: 6</title></g><g style="mix-blend-mode: multiply;"><path d="M265,395.9677419354839C392.5,395.9677419354839,392.5,134.43548387096774,520,134.43548387096774" stroke="#cccccc" stroke-width="28.225806451612904"/><title>BLACK → 50 - 50: 5</title></g><g style="mix-blend-mode: multiply;"><path d="M265,109.35483870967742C392.5,109.35483870967742,392.5,111.85483870967742,520,111.85483870967742" stroke="#cccccc" stroke-width="5.645161290322581"/><title>WHITE → 50 - 50: 1</title></g><g style="mix-blend-mode: multiply;"><path d="M265,182.741935483871C392.5,182.741935483871,392.5,503.7903225806452,520,503.7903225806452" stroke="#cccccc" stroke-width="62.09677419354839"/><title>WHITE → 30 - 40: 11</title></g><g style="mix-blend-mode: multiply;"><path d="M265,292.17741935483866C392.5,292.17741935483866,392.5,231.93548387096774,520,231.93548387096774" stroke="#cccccc" stroke-width="11.290322580645162"/><title>WHITE HISPANIC → 10 - 20: 2</title></g><g style="mix-blend-mode: multiply;"><path d="M265,452.4193548387097C392.5,452.4193548387097,392.5,257.33870967741933,520,257.33870967741933" stroke="#cccccc" stroke-width="39.516129032258064"/><title>BLACK → 10 - 20: 7</title></g><g style="mix-blend-mode: multiply;"><path d="M265,367.741935483871C392.5,367.741935483871,392.5,2.8225806451612905,520,2.8225806451612905" stroke="#cccccc" stroke-width="5.645161290322581"/><title>BLACK → 60 - 60: 1</title></g><g style="mix-blend-mode: multiply;"><path d="M265,489.11290322580646C392.5,489.11290322580646,392.5,327.258064516129,520,327.258064516129" stroke="#cccccc" stroke-width="33.87096774193549"/><title>BLACK → 50 - 60: 6</title></g><g style="mix-blend-mode: multiply;"><path d="M265,278.0645161290322C392.5,278.0645161290322,392.5,178.9516129032258,520,178.9516129032258" stroke="#cccccc" stroke-width="16.935483870967744"/><title>WHITE HISPANIC → 40 - 50: 3</title></g><g style="mix-blend-mode: multiply;"><path d="M265,266.7741935483871C392.5,266.7741935483871,392.5,117.5,520,117.5" stroke="#cccccc" stroke-width="5.645161290322581"/><title>WHITE HISPANIC → 50 - 50: 1</title></g><g style="mix-blend-mode: multiply;"><path d="M265,238.54838709677418C392.5,238.54838709677418,392.5,56.693548387096726,520,56.693548387096726" stroke="#cccccc" stroke-width="28.225806451612904"/><title>WHITE HISPANIC → 70 - 70: 5</title></g><g style="mix-blend-mode: multiply;"><path d="M265,328.8709677419355C392.5,328.8709677419355,392.5,408.46774193548384,520,408.46774193548384" stroke="#cccccc" stroke-width="39.516129032258064"/><title>WHITE HISPANIC → 20 - 30: 7</title></g><g style="mix-blend-mode: multiply;"><path d="M265,87.4193548387097C392.5,87.4193548387097,392.5,469.9193548387097,520,469.9193548387097" stroke="#cccccc" stroke-width="5.645161290322581"/><title>ASIAN / PACIFIC ISLANDER → 30 - 40: 1</title></g><g style="mix-blend-mode: multiply;"><path d="M265,117.82258064516128C392.5,117.82258064516128,392.5,164.83870967741936,520,164.83870967741936" stroke="#cccccc" stroke-width="11.290322580645162"/><title>WHITE → 40 - 50: 2</title></g><g style="mix-blend-mode: multiply;"><path d="M265,73.30645161290323C392.5,73.30645161290323,392.5,287.7419354838709,520,287.7419354838709" stroke="#cccccc" stroke-width="11.290322580645162"/><title>ASIAN / PACIFIC ISLANDER → 50 - 60: 2</title></g><g style="mix-blend-mode: multiply;"><path d="M265,303.46774193548384C392.5,303.46774193548384,392.5,304.67741935483866,520,304.67741935483866" stroke="#cccccc" stroke-width="11.290322580645162"/><title>WHITE HISPANIC → 50 - 60: 2</title></g><g style="mix-blend-mode: multiply;"><path d="M265,354.2741935483871C392.5,354.2741935483871,392.5,540.483870967742,520,540.483870967742" stroke="#cccccc" stroke-width="11.290322580645162"/><title>WHITE HISPANIC → 30 - 40: 2</title></g><g style="mix-blend-mode: multiply;"><path d="M265,421.37096774193554C392.5,421.37096774193554,392.5,198.70967741935482,520,198.70967741935482" stroke="#cccccc" stroke-width="22.580645161290324"/><title>BLACK → 40 - 50: 4</title></g><g style="mix-blend-mode: multiply;"><path d="M265,98.06451612903227C392.5,98.06451612903227,392.5,13.46774193548388,520,13.46774193548388" stroke="#cccccc" stroke-width="5.645161290322581"/><title>WHITE → 40 - 40: 1</title></g><g style="mix-blend-mode: multiply;"><path d="M265,103.70967741935485C392.5,103.70967741935485,392.5,24.112903225806445,520,24.112903225806445" stroke="#cccccc" stroke-width="5.645161290322581"/><title>WHITE → 60 - 70: 1</title></g><g style="mix-blend-mode: multiply;"><path d="M265,81.77419354838712C392.5,81.77419354838712,392.5,368.9516129032258,520,368.9516129032258" stroke="#cccccc" stroke-width="5.645161290322581"/><title>ASIAN / PACIFIC ISLANDER → 20 - 30: 1</title></g><g style="mix-blend-mode: multiply;"><path d="M265,131.93548387096774C392.5,131.93548387096774,392.5,296.2096774193548,520,296.2096774193548" stroke="#cccccc" stroke-width="5.645161290322581"/><title>WHITE → 50 - 60: 1</title></g><g style="mix-blend-mode: multiply;"><path d="M265,143.22580645161293C392.5,143.22580645161293,392.5,380.241935483871,520,380.241935483871" stroke="#cccccc" stroke-width="16.935483870967744"/><title>WHITE → 20 - 30: 3</title></g><g style="mix-blend-mode: multiply;"><path d="M265,221.6129032258064C392.5,221.6129032258064,392.5,34.758064516129004,520,34.758064516129004" stroke="#cccccc" stroke-width="5.645161290322581"/><title>WHITE HISPANIC → 20 - 20: 1</title></g><g style="mix-blend-mode: multiply;"><path d="M265,517.3387096774194C392.5,517.3387096774194,392.5,439.51612903225805,520,439.51612903225805" stroke="#cccccc" stroke-width="22.580645161290324"/><title>BLACK → 20 - 30: 4</title></g><g style="mix-blend-mode: multiply;"><path d="M265,64.83870967741936C392.5,64.83870967741936,392.5,217.82258064516125,520,217.82258064516125" stroke="#cccccc" stroke-width="5.645161290322581"/><title>ASIAN / PACIFIC ISLANDER → 10 - 20: 1</title></g><g style="mix-blend-mode: multiply;"><path d="M265,31.612903225806452C392.5,31.612903225806452,392.5,357.6612903225806,520,357.6612903225806" stroke="#cccccc" stroke-width="16.935483870967744"/><title>BLACK HISPANIC → 20 - 30: 3</title></g><g style="mix-blend-mode: multiply;"><path d="M265,258.3064516129032C392.5,258.3064516129032,392.5,87.09677419354836,520,87.09677419354836" stroke="#cccccc" stroke-width="11.290322580645162"/><title>WHITE HISPANIC → 30 - 30: 2</title></g><g style="mix-blend-mode: multiply;"><path d="M265,376.2096774193548C392.5,376.2096774193548,392.5,98.38709677419352,520,98.38709677419352" stroke="#cccccc" stroke-width="11.290322580645162"/><title>BLACK → 30 - 30: 2</title></g><g style="mix-blend-mode: multiply;"><path d="M265,20.322580645161292C392.5,20.322580645161292,392.5,78.6290322580645,520,78.6290322580645" stroke="#cccccc" stroke-width="5.645161290322581"/><title>BLACK HISPANIC → 30 - 30: 1</title></g><g style="mix-blend-mode: multiply;"><path d="M265,59.193548387096776C392.5,59.193548387096776,392.5,156.37096774193546,520,156.37096774193546" stroke="#cccccc" stroke-width="5.645161290322581"/><title>ASIAN / PACIFIC ISLANDER → 40 - 50: 1</title></g><g style="mix-blend-mode: multiply;"><path d="M265,126.29032258064517C392.5,126.29032258064517,392.5,223.46774193548384,520,223.46774193548384" stroke="#cccccc" stroke-width="5.645161290322581"/><title>WHITE → 10 - 20: 1</title></g><g style="mix-blend-mode: multiply;"><path d="M525,484.0322580645161C652.5,484.0322580645161,652.5,299.6774193548388,780,299.6774193548388" stroke="#9467bd" stroke-width="22.580645161290324"/><title>30 - 40 → ANTI-ASIAN: 4</title></g><g style="mix-blend-mode: multiply;"><path d="M525,140.08064516129033C652.5,140.08064516129033,652.5,217.82258064516128,780,217.82258064516128" stroke="#7f7f7f" stroke-width="16.935483870967744"/><title>50 - 50 → ANTI-ASIAN: 3</title></g><g style="mix-blend-mode: multiply;"><path d="M525,243.2258064516129C652.5,243.2258064516129,652.5,254.51612903225808,780,254.51612903225808" stroke="#1f77b4" stroke-width="45.16129032258065"/><title>10 - 20 → ANTI-ASIAN: 8</title></g><g style="mix-blend-mode: multiply;"><path d="M525,2.8225806451612905C652.5,2.8225806451612905,652.5,200.8870967741935,780,200.8870967741935" stroke="#17becf" stroke-width="5.645161290322581"/><title>60 - 60 → ANTI-ASIAN: 1</title></g><g style="mix-blend-mode: multiply;"><path d="M525,304.67741935483866C652.5,304.67741935483866,652.5,282.741935483871,780,282.741935483871" stroke="#bcbd22" stroke-width="11.290322580645162"/><title>50 - 60 → ANTI-ASIAN: 2</title></g><g style="mix-blend-mode: multiply;"><path d="M525,184.59677419354836C652.5,184.59677419354836,652.5,229.11290322580643,780,229.11290322580643" stroke="#e377c2" stroke-width="5.645161290322581"/><title>40 - 50 → ANTI-ASIAN: 1</title></g><g style="mix-blend-mode: multiply;"><path d="M525,62.33870967741931C652.5,62.33870967741931,652.5,206.5322580645161,780,206.5322580645161" stroke="#cccccc" stroke-width="5.645161290322581"/><title>70 - 70 → ANTI-ASIAN: 1</title></g><g style="mix-blend-mode: multiply;"><path d="M525,380.241935483871C652.5,380.241935483871,652.5,184.59677419354833,780,184.59677419354833" stroke="#2ca02c" stroke-width="5.645161290322581"/><title>20 - 30 → ANTI-BLACK: 1</title></g><g style="mix-blend-mode: multiply;"><path d="M525,469.91935483870964C652.5,469.91935483870964,652.5,190.24193548387092,780,190.24193548387092" stroke="#9467bd" stroke-width="5.645161290322581"/><title>30 - 40 → ANTI-BLACK: 1</title></g><g style="mix-blend-mode: multiply;"><path d="M525,176.1290322580645C652.5,176.1290322580645,652.5,164.83870967741933,780,164.83870967741933" stroke="#e377c2" stroke-width="11.290322580645162"/><title>40 - 50 → ANTI-BLACK: 2</title></g><g style="mix-blend-mode: multiply;"><path d="M525,293.3870967741935C652.5,293.3870967741935,652.5,176.12903225806448,780,176.12903225806448" stroke="#bcbd22" stroke-width="11.290322580645162"/><title>50 - 60 → ANTI-BLACK: 2</title></g><g style="mix-blend-mode: multiply;"><path d="M525,56.693548387096726C652.5,56.693548387096726,652.5,156.37096774193543,780,156.37096774193543" stroke="#cccccc" stroke-width="5.645161290322581"/><title>70 - 70 → ANTI-BLACK: 1</title></g><g style="mix-blend-mode: multiply;"><path d="M525,120.3225806451613C652.5,120.3225806451613,652.5,65.16129032258068,780,65.16129032258068" stroke="#7f7f7f" stroke-width="22.580645161290324"/><title>50 - 50 → ANTI-FEMALE: 4</title></g><g style="mix-blend-mode: multiply;"><path d="M525,458.6290322580645C652.5,458.6290322580645,652.5,13.46774193548387,780,13.46774193548387" stroke="#9467bd" stroke-width="5.645161290322581"/><title>30 - 40 → ANTI-ISLAMIC(MUSLIM): 1</title></g><g style="mix-blend-mode: multiply;"><path d="M525,156.37096774193546C652.5,156.37096774193546,652.5,7.82258064516129,780,7.82258064516129" stroke="#e377c2" stroke-width="5.645161290322581"/><title>40 - 50 → ANTI-ISLAMIC(MUSLIM): 1</title></g><g style="mix-blend-mode: multiply;"><path d="M525,560.2419354838709C652.5,560.2419354838709,652.5,555.2419354838709,780,555.2419354838709" stroke="#9467bd" stroke-width="39.516129032258064"/><title>30 - 40 → ANTI-JEWISH: 7</title></g><g style="mix-blend-mode: multiply;"><path d="M525,13.46774193548388C652.5,13.46774193548388,652.5,436.6935483870967,780,436.6935483870967" stroke="#8c564b" stroke-width="5.645161290322581"/><title>40 - 40 → ANTI-JEWISH: 1</title></g><g style="mix-blend-mode: multiply;"><path d="M525,330.0806451612903C652.5,330.0806451612903,652.5,481.8548387096773,780,481.8548387096773" stroke="#bcbd22" stroke-width="28.225806451612904"/><title>50 - 60 → ANTI-JEWISH: 5</title></g><g style="mix-blend-mode: multiply;"><path d="M525,24.112903225806445C652.5,24.112903225806445,652.5,442.3387096774193,780,442.3387096774193" stroke="#cccccc" stroke-width="5.645161290322581"/><title>60 - 70 → ANTI-JEWISH: 1</title></g><g style="mix-blend-mode: multiply;"><path d="M525,431.0483870967742C652.5,431.0483870967742,652.5,515.7258064516128,780,515.7258064516128" stroke="#2ca02c" stroke-width="39.516129032258064"/><title>20 - 30 → ANTI-JEWISH: 7</title></g><g style="mix-blend-mode: multiply;"><path d="M525,271.4516129032258C652.5,271.4516129032258,652.5,462.09677419354824,780,462.09677419354824" stroke="#1f77b4" stroke-width="11.290322580645162"/><title>10 - 20 → ANTI-JEWISH: 2</title></g><g style="mix-blend-mode: multiply;"><path d="M525,34.758064516129004C652.5,34.758064516129004,652.5,447.98387096774184,780,447.98387096774184" stroke="#ff7f0e" stroke-width="5.645161290322581"/><title>20 - 20 → ANTI-JEWISH: 1</title></g><g style="mix-blend-mode: multiply;"><path d="M525,207.1774193548387C652.5,207.1774193548387,652.5,453.6290322580644,780,453.6290322580644" stroke="#e377c2" stroke-width="5.645161290322581"/><title>40 - 50 → ANTI-JEWISH: 1</title></g><g style="mix-blend-mode: multiply;"><path d="M525,354.83870967741933C652.5,354.83870967741933,652.5,26.935483870967733,780,26.935483870967733" stroke="#2ca02c" stroke-width="11.290322580645162"/><title>20 - 30 → ANTI-LGBT(MIXED GROUP): 2</title></g><g style="mix-blend-mode: multiply;"><path d="M525,517.9032258064516C652.5,517.9032258064516,652.5,406.2903225806451,780,406.2903225806451" stroke="#9467bd" stroke-width="45.16129032258065"/><title>30 - 40 → ANTI-MALE HOMOSEXUAL(GAY): 8</title></g><g style="mix-blend-mode: multiply;"><path d="M525,195.88709677419354C652.5,195.88709677419354,652.5,341.3709677419355,780,341.3709677419355" stroke="#e377c2" stroke-width="16.935483870967744"/><title>40 - 50 → ANTI-MALE HOMOSEXUAL(GAY): 3</title></g><g style="mix-blend-mode: multiply;"><path d="M525,397.1774193548387C652.5,397.1774193548387,652.5,369.59677419354836,780,369.59677419354836" stroke="#2ca02c" stroke-width="28.225806451612904"/><title>20 - 30 → ANTI-MALE HOMOSEXUAL(GAY): 5</title></g><g style="mix-blend-mode: multiply;"><path d="M525,313.14516129032256C652.5,313.14516129032256,652.5,352.6612903225806,780,352.6612903225806" stroke="#bcbd22" stroke-width="5.645161290322581"/><title>50 - 60 → ANTI-MALE HOMOSEXUAL(GAY): 1</title></g><g style="mix-blend-mode: multiply;"><path d="M525,98.38709677419351C652.5,98.38709677419351,652.5,327.25806451612897,780,327.25806451612897" stroke="#d62728" stroke-width="11.290322580645162"/><title>30 - 30 → ANTI-MALE HOMOSEXUAL(GAY): 2</title></g><g style="mix-blend-mode: multiply;"><path d="M525,67.9838709677419C652.5,67.9838709677419,652.5,318.7903225806451,780,318.7903225806451" stroke="#cccccc" stroke-width="5.645161290322581"/><title>70 - 70 → ANTI-MALE HOMOSEXUAL(GAY): 1</title></g><g style="mix-blend-mode: multiply;"><path d="M525,78.6290322580645C652.5,78.6290322580645,652.5,40.40322580645162,780,40.40322580645162" stroke="#d62728" stroke-width="5.645161290322581"/><title>30 - 30 → ANTI-TRANSGENDER: 1</title></g><g style="mix-blend-mode: multiply;"><path d="M525,363.30645161290323C652.5,363.30645161290323,652.5,46.048387096774206,780,46.048387096774206" stroke="#2ca02c" stroke-width="5.645161290322581"/><title>20 - 30 → ANTI-TRANSGENDER: 1</title></g><g style="mix-blend-mode: multiply;"><path d="M525,84.27419354838707C652.5,84.27419354838707,652.5,95.56451612903231,780,95.56451612903231" stroke="#d62728" stroke-width="5.645161290322581"/><title>30 - 30 → ANTI-WHITE: 1</title></g><g style="mix-blend-mode: multiply;"><path d="M525,371.7741935483871C652.5,371.7741935483871,652.5,104.03225806451617,780,104.03225806451617" stroke="#2ca02c" stroke-width="11.290322580645162"/><title>20 - 30 → ANTI-WHITE: 2</title></g><g style="mix-blend-mode: multiply;"><path d="M525,48.22580645161286C652.5,48.22580645161286,652.5,87.09677419354843,780,87.09677419354843" stroke="#cccccc" stroke-width="11.290322580645162"/><title>70 - 70 → ANTI-WHITE: 2</title></g><g style="mix-blend-mode: multiply;"><path d="M525,89.91935483870965C652.5,89.91935483870965,652.5,117.49999999999996,780,117.49999999999996" stroke="#d62728" stroke-width="5.645161290322581"/><title>30 - 30 → OTHER: 1</title></g><g style="mix-blend-mode: multiply;"><path d="M525,464.2741935483871C652.5,464.2741935483871,652.5,145.72580645161287,780,145.72580645161287" stroke="#9467bd" stroke-width="5.645161290322581"/><title>30 - 40 → OTHER: 1</title></g><g style="mix-blend-mode: multiply;"><path d="M525,164.83870967741936C652.5,164.83870967741936,652.5,125.96774193548382,780,125.96774193548382" stroke="#e377c2" stroke-width="11.290322580645162"/><title>40 - 50 → OTHER: 2</title></g><g style="mix-blend-mode: multiply;"><path d="M525,217.82258064516125C652.5,217.82258064516125,652.5,134.4354838709677,780,134.4354838709677" stroke="#1f77b4" stroke-width="5.645161290322581"/><title>10 - 20 → OTHER: 1</title></g><g style="mix-blend-mode: multiply;"><path d="M525,284.91935483870964C652.5,284.91935483870964,652.5,140.08064516129028,780,140.08064516129028" stroke="#bcbd22" stroke-width="5.645161290322581"/><title>50 - 60 → OTHER: 1</title></g></g><g><text x="516" y="2.8225806451612954" text-anchor="end"><tspan alignment-baseline="middle" x="516" style="font-family: Arial, sans-serif; font-size: 10px; fill: black; font-weight: bold;">60 - 60</tspan></text><text x="516" y="13.467741935483872" text-anchor="end"><tspan alignment-baseline="middle" x="516" style="font-family: Arial, sans-serif; font-size: 10px; fill: black; font-weight: bold;">40 - 40</tspan></text><text x="516" y="24.112903225806434" text-anchor="end"><tspan alignment-baseline="middle" x="516" style="font-family: Arial, sans-serif; font-size: 10px; fill: black; font-weight: bold;">60 - 70</tspan></text><text x="516" y="34.758064516129" text-anchor="end"><tspan alignment-baseline="middle" x="516" style="font-family: Arial, sans-serif; font-size: 10px; fill: black; font-weight: bold;">20 - 20</tspan></text><text x="776" y="10.645161290322577" text-anchor="end"><tspan alignment-baseline="middle" x="776" style="font-family: Arial, sans-serif; font-size: 10px; fill: black; font-weight: bold;">ANTI-ISLAMIC(MUSLIM)</tspan></text><text x="776" y="26.935483870967744" text-anchor="end"><tspan alignment-baseline="middle" x="776" style="font-family: Arial, sans-serif; font-size: 10px; fill: black; font-weight: bold;">ANTI-LGBT(MIXED GROUP)</tspan></text><text x="776" y="43.225806451612925" text-anchor="end"><tspan alignment-baseline="middle" x="776" style="font-family: Arial, sans-serif; font-size: 10px; fill: black; font-weight: bold;">ANTI-TRANSGENDER</tspan></text><text x="776" y="65.16129032258068" text-anchor="end"><tspan alignment-baseline="middle" x="776" style="font-family: Arial, sans-serif; font-size: 10px; fill: black; font-weight: bold;">ANTI-FEMALE</tspan></text><text x="516" y="56.69354838709674" text-anchor="end"><tspan alignment-baseline="middle" x="516" style="font-family: Arial, sans-serif; font-size: 10px; fill: black; font-weight: bold;">70 - 70</tspan></text><text x="516" y="89.91935483870967" text-anchor="end"><tspan alignment-baseline="middle" x="516" style="font-family: Arial, sans-serif; font-size: 10px; fill: black; font-weight: bold;">30 - 30</tspan></text><text x="776" y="95.56451612903226" text-anchor="end"><tspan alignment-baseline="middle" x="776" style="font-family: Arial, sans-serif; font-size: 10px; fill: black; font-weight: bold;">ANTI-WHITE</tspan></text><text x="269" y="34.435483870967744" text-anchor="start"><tspan alignment-baseline="middle" x="269" style="font-family: Arial, sans-serif; font-size: 10px; fill: black; font-weight: bold;">BLACK HISPANIC</tspan></text><text x="269" y="73.30645161290323" text-anchor="start"><tspan alignment-baseline="middle" x="269" style="font-family: Arial, sans-serif; font-size: 10px; fill: black; font-weight: bold;">ASIAN / PACIFIC ISLANDER</tspan></text><text x="776" y="131.6129032258064" text-anchor="end"><tspan alignment-baseline="middle" x="776" style="font-family: Arial, sans-serif; font-size: 10px; fill: black; font-weight: bold;">OTHER</tspan></text><text x="516" y="128.79032258064515" text-anchor="end"><tspan alignment-baseline="middle" x="516" style="font-family: Arial, sans-serif; font-size: 10px; fill: black; font-weight: bold;">50 - 50</tspan></text><text x="776" y="173.30645161290317" text-anchor="end"><tspan alignment-baseline="middle" x="776" style="font-family: Arial, sans-serif; font-size: 10px; fill: black; font-weight: bold;">ANTI-BLACK</tspan></text><text x="516" y="181.77419354838707" text-anchor="end"><tspan alignment-baseline="middle" x="516" style="font-family: Arial, sans-serif; font-size: 10px; fill: black; font-weight: bold;">40 - 50</tspan></text><text x="516" y="246.04838709677415" text-anchor="end"><tspan alignment-baseline="middle" x="516" style="font-family: Arial, sans-serif; font-size: 10px; fill: black; font-weight: bold;">10 - 20</tspan></text><text x="516" y="313.14516129032256" text-anchor="end"><tspan alignment-baseline="middle" x="516" style="font-family: Arial, sans-serif; font-size: 10px; fill: black; font-weight: bold;">50 - 60</tspan></text><text x="516" y="400" text-anchor="end"><tspan alignment-baseline="middle" x="516" style="font-family: Arial, sans-serif; font-size: 10px; fill: black; font-weight: bold;">20 - 30</tspan></text><text x="9" y="81.45161290322582" text-anchor="start"><tspan alignment-baseline="middle" x="9" style="font-family: Arial, sans-serif; font-size: 10px; fill: black; font-weight: bold;">FEMALE</tspan></text><text x="776" y="254.51612903225805" text-anchor="end"><tspan alignment-baseline="middle" x="776" style="font-family: Arial, sans-serif; font-size: 10px; fill: black; font-weight: bold;">ANTI-ASIAN</tspan></text><text x="776" y="372.41935483870964" text-anchor="end"><tspan alignment-baseline="middle" x="776" style="font-family: Arial, sans-serif; font-size: 10px; fill: black; font-weight: bold;">ANTI-MALE HOMOSEXUAL(GAY)</tspan></text><text x="269" y="154.51612903225805" text-anchor="start"><tspan alignment-baseline="middle" x="269" style="font-family: Arial, sans-serif; font-size: 10px; fill: black; font-weight: bold;">WHITE</tspan></text><text x="516" y="517.9032258064516" text-anchor="end"><tspan alignment-baseline="middle" x="516" style="font-family: Arial, sans-serif; font-size: 10px; fill: black; font-weight: bold;">30 - 40</tspan></text><text x="269" y="289.35483870967744" text-anchor="start"><tspan alignment-baseline="middle" x="269" style="font-family: Arial, sans-serif; font-size: 10px; fill: black; font-weight: bold;">WHITE HISPANIC</tspan></text><text x="776" y="504.4354838709677" text-anchor="end"><tspan alignment-baseline="middle" x="776" style="font-family: Arial, sans-serif; font-size: 10px; fill: black; font-weight: bold;">ANTI-JEWISH</tspan></text><text x="269" y="463.7096774193549" text-anchor="start"><tspan alignment-baseline="middle" x="269" style="font-family: Arial, sans-serif; font-size: 10px; fill: black; font-weight: bold;">BLACK</tspan></text><text x="9" y="348.95161290322585" text-anchor="start"><tspan alignment-baseline="middle" x="9" style="font-family: Arial, sans-serif; font-size: 10px; fill: black; font-weight: bold;">MALE</tspan></text></g><g><text x="522.5" y="-4" text-anchor="middle" style="font-family: Arial, sans-serif; font-size: 12px; fill: rgb(123, 123, 123); font-weight: bold;">Age group</text><text x="782.5" y="1" text-anchor="middle" style="font-family: Arial, sans-serif; font-size: 12px; fill: rgb(123, 123, 123); font-weight: bold;">Bias-Motivation</text><text x="262.5" y="13.5" text-anchor="middle" style="font-family: Arial, sans-serif; font-size: 12px; fill: rgb(123, 123, 123); font-weight: bold;">Race</text><text x="2.5" y="21" text-anchor="middle" style="font-family: Arial, sans-serif; font-size: 12px; fill: rgb(123, 123, 123); font-weight: bold;">Gender</text></g></g></svg>