<svg xmlns="http://www.w3.org/2000/svg" xmlns:xlink="http://www.w3.org/1999/xlink" viewBox="0 0 779.1 584.33"><defs><style>.cls-1{isolation:isolate;}.cls-2{fill:#ff2103;mix-blend-mode:multiply;}.cls-3{fill:#fff;}</style></defs><g class="cls-1"><g id="Capa_1" data-name="Capa 1"><image width="400" height="300" transform="translate(0 0) scale(1.95)" xlink:href="mapa.png"/><path class="cls-2" d="M650.21,681.88s-45.14,49-49.68,73.39-7.47,35.4-5.52,43.84l54.23-3.57,3.84-7.46,36.37,20.13L681.72,740,722,706.56l-34.43-62.68-38.64,27Z" transform="translate(-156.21 -233.03)"/><path class="cls-3" d="M631.49,750.37c3.77,3.77,3.22,6.85.86,9.21l-2.87,2.88L619.4,752.39l2.88-2.88C624,747.77,627.12,746,631.49,750.37Zm-2.11,2c-2.55-2.54-4.14-2.2-5.3-1l-.82.82,6.42,6.42.82-.82C631.74,756.55,631.79,754.82,629.38,752.4Z" transform="translate(-156.21 -233.03)"/><path class="cls-3" d="M641.71,745.51l-2.59,2.59,1.8,2.92-2.17,2.17-7.27-12.88,2.44-2.44,12.89,7.26-2.18,2.18Zm-2.07-1.27-4.32-2.65-.11.12,2.64,4.32Z" transform="translate(-156.21 -233.03)"/><path class="cls-3" d="M646.37,725.41l10.08,10.08-2.07,2.07-8.76-3.28-.12.13,6,6-1.91,1.91-10.08-10.07,2.06-2.06,8.81,3.31.13-.13-6.06-6.06Z" transform="translate(-156.21 -233.03)"/><path class="cls-3" d="M661.85,719.07l5.51,5.51-1.47,1.47-.95-.55-.13.13a3.7,3.7,0,0,1-1.26,3c-2.28,2.28-5.44,2.07-8.77-1.25-3.53-3.53-3.7-7-1.25-9.46,2.06-2.06,4.5-2.17,6.81-.27l-2.15,2.14a2,2,0,0,0-2.85.06c-1.22,1.22-.8,3.14,1.47,5.41s4,2.57,5.23,1.31c.93-.93,1.17-2.19-.15-3.51l-.47-.47-1.69,1.68-1.57-1.57Z" transform="translate(-156.21 -233.03)"/><path class="cls-3" d="M674.79,713.61l1.77,1.77-5.73,5.73L660.75,711l5.59-5.58,1.77,1.77-3.6,3.6,2.32,2.32,3.06-3.07,1.76,1.76-3.07,3.06,2.46,2.46Z" transform="translate(-156.21 -233.03)"/><path class="cls-3" d="M684.21,707.72,679,705.28l-1.12,1.12,3.85,3.86-2,2-10.08-10.07,3.46-3.46a3.92,3.92,0,0,1,5.95.09,4.19,4.19,0,0,1,1.3,4.17l6,2.68Zm-8.1-3,1.17-1.17a1.77,1.77,0,0,0-.17-2.65,1.71,1.71,0,0,0-2.6-.14l-1.18,1.18Z" transform="translate(-156.21 -233.03)"/></g></g></svg>